<?xml version="1.0" standalone="no"?>
<!DOCTYPE svg PUBLIC "-//W3C//DTD SVG 20010904//EN"
 "http://www.w3.org/TR/2001/REC-SVG-20010904/DTD/svg10.dtd">
<svg version="1.0" xmlns="http://www.w3.org/2000/svg"
 width="512.000000pt" height="512.000000pt" viewBox="0 0 512.000000 512.000000"
 preserveAspectRatio="xMidYMid meet">
<metadata>
Created by potrace 1.14, written by Peter Selinger 2001-2017
</metadata>
<g transform="translate(0.000000,512.000000) scale(0.100000,-0.100000)"
fill="#000000" stroke="none">
<path d="M2425 5000 c-66 -31 -178 -85 -250 -120 -71 -34 -188 -91 -260 -125
-71 -34 -197 -95 -280 -135 -82 -40 -195 -94 -250 -120 -55 -26 -176 -85 -270
-130 -93 -45 -224 -108 -291 -140 -353 -169 -322 -145 -350 -274 -9 -39 -18
-80 -20 -91 -3 -11 -7 -31 -10 -44 -3 -13 -21 -92 -40 -175 -19 -83 -36 -160
-38 -171 -2 -11 -12 -51 -21 -90 -9 -38 -19 -79 -21 -90 -3 -11 -7 -31 -10
-45 -3 -14 -13 -61 -24 -105 -31 -135 -50 -219 -54 -240 -2 -11 -11 -47 -19
-80 -9 -33 -18 -71 -21 -85 -10 -52 -48 -217 -61 -270 -8 -31 -17 -73 -21 -95
-3 -22 -8 -42 -9 -46 -11 -17 -104 -458 -101 -475 5 -24 84 -129 224 -299 10
-11 27 -33 40 -50 13 -16 34 -43 47 -60 14 -16 100 -125 192 -241 93 -115 182
-228 200 -250 18 -21 183 -229 368 -461 318 -400 337 -422 373 -427 20 -3 532
-5 1136 -5 811 1 1104 4 1119 12 10 7 49 50 85 97 37 47 72 92 79 100 7 8 127
159 268 335 140 176 268 335 283 354 15 19 110 138 210 265 101 127 191 240
200 251 127 153 284 359 288 377 4 21 -10 99 -36 198 -8 32 -97 421 -153 674
-24 105 -48 146 -89 146 -21 0 -25 8 -44 95 l-21 95 24 15 c33 22 37 54 18
137 -9 40 -18 80 -20 88 -7 34 -108 472 -130 565 -12 55 -26 116 -30 135 -12
58 -32 87 -72 103 -21 8 -132 61 -248 117 -423 205 -927 448 -1110 535 -49 23
-175 84 -280 135 -282 137 -338 163 -360 165 -11 2 -74 -23 -140 -55z"/>
</g>
</svg>
